<svg xmlns="http://www.w3.org/2000/svg" width="16" height="17" fill="none" viewBox="0 0 16 17">
  <path fill="#FFC107" d="M15.845 6.933H15.2V6.9H8v3.2h4.521A4.798 4.798 0 0 1 3.2 8.5 4.8 4.8 0 0 1 8 3.7c1.224 0 2.337.462 3.184 1.216l2.263-2.263A7.963 7.963 0 0 0 8 .5a8 8 0 1 0 7.845 6.433Z"/>
  <path fill="#FF3D00" d="M.922 4.776 3.55 6.704A4.798 4.798 0 0 1 8 3.7c1.223 0 2.336.462 3.184 1.216l2.263-2.263A7.963 7.963 0 0 0 8 .5 7.995 7.995 0 0 0 .922 4.776Z"/>
  <path fill="#4CAF50" d="M8 16.5a7.96 7.96 0 0 0 5.364-2.077l-2.476-2.095A4.764 4.764 0 0 1 8 13.3a4.798 4.798 0 0 1-4.513-3.178l-2.609 2.01A7.994 7.994 0 0 0 8 16.5Z"/>
  <path fill="#1976D2" d="M15.844 6.933H15.2V6.9H8v3.2h4.521a4.816 4.816 0 0 1-1.635 2.229l.002-.001 2.476 2.095C13.188 14.583 16 12.5 16 8.5c0-.536-.055-1.06-.156-1.567Z"/>
</svg>
